<svg width="46" height="23" viewBox="0 0 46 23" fill="none" xmlns="http://www.w3.org/2000/svg">
<path d="M14.3277 13.28L14.5517 13.536H17.3677C17.5277 14.4 17.6877 15.68 17.6877 17.504V20.032C16.4397 20.608 14.8397 21.088 12.9517 21.088C7.7677 21.088 4.7597 17.312 4.7597 11.104C4.7597 4.992 7.6717 1.312 12.4077 1.312C15.4797 1.312 17.4317 2.784 17.4317 5.888C17.4317 7.296 17.0797 7.872 17.0797 7.872L17.3997 8.192C19.3197 8.192 20.4717 7.872 20.4717 7.872C20.4717 7.872 20.8557 7.392 20.8557 6.112C20.8557 2.336 17.6237 0 12.4717 0C5.2397 0 0.887695 4.64 0.887695 11.424C0.887695 18.272 5.3037 22.912 12.3437 22.912C18.2317 22.912 20.8877 19.648 20.8877 19.648V12L20.5677 11.68C20.5677 11.68 19.3837 12 17.3357 12H14.3277V13.28Z" fill="#4D4D4D"/>
<path d="M36.4054 1.312C39.6054 1.312 41.5574 3.04 41.5574 6.144C41.5574 7.584 41.2054 8.192 41.2054 8.192L41.5254 8.48C43.4454 8.48 44.5974 8.192 44.5974 8.192C44.5974 8.192 45.0134 7.68 45.0134 6.368C45.0134 2.624 41.7814 0 36.4694 0C29.3974 0 24.9814 4.64 24.9814 11.424C24.9814 18.272 29.4934 22.912 36.2774 22.912C42.4534 22.912 44.9814 19.04 44.9814 19.04L44.3414 18.4C44.3414 18.4 41.6534 20.8 37.2054 20.8C31.9574 20.8 28.8534 17.408 28.8534 11.104C28.8534 5.024 31.7974 1.312 36.4054 1.312Z" fill="#4D4D4D"/>
</svg>
